<svg width="134" height="48" viewBox="0 0 134 48" fill="none" xmlns="http://www.w3.org/2000/svg">
<path fill-rule="evenodd" clip-rule="evenodd" d="M18.7417 8.29862C11.8412 8.29862 6.24723 13.8926 6.24723 20.7931C6.24723 27.6936 11.8412 33.2875 18.7417 33.2875C21.9429 33.2875 24.8629 32.0836 27.0737 30.1039C28.5288 28.8009 30.8566 28.4806 32.2364 29.863L34.0191 31.6489C34.0198 31.6496 34.0199 31.6506 34.0193 31.6514C34.0188 31.6522 34.0189 31.6533 34.0195 31.654L36.6087 34.2431L38.7024 36.3407C38.7029 36.3412 38.7037 36.3412 38.7043 36.3407C38.7048 36.3402 38.7056 36.3402 38.7062 36.3407L42.8157 40.4503C44.0355 41.6701 44.0355 43.6479 42.8157 44.8677C41.5959 46.0875 39.6181 46.0875 38.3983 44.8677L32.3685 38.8379C30.7708 37.2402 28.2717 37.0924 26.199 37.9924C23.9137 38.9846 21.3919 39.5348 18.7417 39.5348C8.39094 39.5348 0 31.1438 0 20.7931C0 10.4423 8.39094 2.05139 18.7417 2.05139C29.0924 2.05139 37.4834 10.4423 37.4834 20.7931C37.4834 22.535 37.2457 24.2214 36.8011 25.8217C36.203 27.9746 33.5401 28.3595 31.9616 26.7781C31.0252 25.84 30.7675 24.4458 31.0154 23.1437C31.1603 22.3824 31.2361 21.5966 31.2361 20.7931C31.2361 13.8926 25.6422 8.29862 18.7417 8.29862Z" fill="url(#paint0_linear_161_1171)"/>
<ellipse cx="34.3206" cy="21.7282" rx="1.9534" ry="3.12545" fill="white" fill-opacity="0.2"/>
<ellipse cx="33.9316" cy="15.3962" rx="1.07453" ry="1.69841" transform="rotate(-18.7938 33.9316 15.3962)" fill="white" fill-opacity="0.2"/>
<path fill-rule="evenodd" clip-rule="evenodd" d="M4.37481 18.5858C3.64316 17.5903 2.13671 17.8983 2.0328 19.1294C1.99261 19.6056 1.97211 20.0873 1.97211 20.5739C1.97211 28.6775 7.65938 35.4528 15.2602 37.1261C16.4643 37.3912 17.2069 36.0461 16.4767 35.0526C16.2584 34.7554 15.9355 34.5541 15.577 34.4682C9.29911 32.9629 4.63296 27.3133 4.63296 20.5739C4.63296 20.2523 4.64359 19.9331 4.66451 19.6168C4.6888 19.2496 4.59277 18.8824 4.37481 18.5858Z" fill="white" fill-opacity="0.2"/>
<path fill-rule="evenodd" clip-rule="evenodd" d="M18.3957 36.7816C18.2768 37.1455 18.5379 37.5225 18.9207 37.5225C20.6292 37.5225 22.2786 37.2697 23.8337 36.7994C24.4949 36.5995 24.8389 35.8914 24.6411 35.2295C24.4187 34.4853 23.606 34.0982 22.8592 34.3119C21.9423 34.5742 20.9877 34.7473 20.0055 34.821C19.4196 34.865 18.8998 35.2378 18.7174 35.7963L18.3957 36.7816Z" fill="white" fill-opacity="0.2"/>
<path d="M52.4418 22V4.10731H56.1645V22H52.4418ZM67.8394 22.2882C66.5585 22.2882 65.3656 22.056 64.2608 21.5917C63.1721 21.1274 62.2194 20.4789 61.4028 19.6463C60.5862 18.8137 59.9458 17.837 59.4814 16.7163C59.0331 15.5955 58.809 14.3706 58.809 13.0416C58.809 11.7127 59.0331 10.4878 59.4814 9.36704C59.9298 8.23023 60.5622 7.25354 61.3788 6.43696C62.1954 5.60437 63.148 4.96391 64.2368 4.5156C65.3416 4.05127 66.5424 3.8191 67.8394 3.8191C69.1363 3.8191 70.2971 4.03526 71.3218 4.46756C72.3626 4.89987 73.2432 5.47628 73.9637 6.19679C74.6842 6.9173 75.1966 7.71787 75.5008 8.59849L72.2105 10.1836C71.9062 9.319 71.3699 8.6065 70.6013 8.0461C69.8488 7.46969 68.9281 7.18149 67.8394 7.18149C66.7826 7.18149 65.854 7.42966 65.0534 7.92602C64.2528 8.42237 63.6284 9.11086 63.1801 9.99148C62.7477 10.8561 62.5316 11.8728 62.5316 13.0416C62.5316 14.2105 62.7477 15.2352 63.1801 16.1158C63.6284 16.9965 64.2528 17.6849 65.0534 18.1813C65.854 18.6776 66.7826 18.9258 67.8394 18.9258C68.9281 18.9258 69.8488 18.6456 70.6013 18.0852C71.3699 17.5088 71.9062 16.7883 72.2105 15.9237L75.5008 17.5088C75.1966 18.3894 74.6842 19.19 73.9637 19.9105C73.2432 20.631 72.3626 21.2074 71.3218 21.6397C70.2971 22.0721 69.1363 22.2882 67.8394 22.2882ZM77.8896 22V4.10731H84.7584C85.9913 4.10731 87.0801 4.32346 88.0247 4.75577C88.9854 5.18807 89.738 5.82853 90.2823 6.67713C90.8267 7.52573 91.0989 8.57448 91.0989 9.82336C91.0989 11.0402 90.8187 12.073 90.2583 12.9216C89.7139 13.7702 88.9614 14.4186 88.0007 14.8669C87.0561 15.2992 85.9753 15.5154 84.7584 15.5154H81.6122V22H77.8896ZM81.6122 12.2731H84.7824C85.3108 12.2731 85.7671 12.169 86.1514 11.9609C86.5357 11.7527 86.8319 11.4645 87.04 11.0963C87.2642 10.728 87.3763 10.3037 87.3763 9.82336C87.3763 9.32701 87.2642 8.8947 87.04 8.52644C86.8319 8.15818 86.5357 7.86998 86.1514 7.66183C85.7671 7.45368 85.3108 7.34961 84.7824 7.34961H81.6122V12.2731Z" fill="white"/>
<path d="M58.9504 46.3052C57.8296 46.3052 56.7729 46.105 55.7802 45.7047C54.8035 45.2885 53.9549 44.704 53.2344 43.9515C52.5299 43.199 52.0015 42.3103 51.6493 41.2856L54.6994 39.9166C55.1477 40.8933 55.7642 41.6619 56.5487 42.2223C57.3493 42.7827 58.2299 43.0629 59.1906 43.0629C59.703 43.0629 60.1433 42.9828 60.5115 42.8227C60.8798 42.6626 61.168 42.4464 61.3762 42.1742C61.5843 41.886 61.6884 41.5498 61.6884 41.1655C61.6884 40.7492 61.5603 40.397 61.3041 40.1088C61.0479 39.8046 60.6476 39.5644 60.1032 39.3883L56.5968 38.2354C55.1718 37.7711 54.099 37.1147 53.3785 36.2661C52.658 35.4014 52.2977 34.3687 52.2977 33.1679C52.2977 32.1111 52.5539 31.1824 53.0663 30.3819C53.5946 29.5813 54.3231 28.9569 55.2518 28.5085C56.1965 28.0602 57.2772 27.8361 58.4941 27.8361C59.5669 27.8361 60.5596 28.0202 61.4722 28.3885C62.3849 28.7567 63.1694 29.2771 63.8259 29.9496C64.4984 30.622 65.0027 31.4306 65.339 32.3753L62.3128 33.7443C61.9766 32.9117 61.4722 32.2632 60.7997 31.7989C60.1273 31.3185 59.3587 31.0784 58.4941 31.0784C57.9978 31.0784 57.5574 31.1584 57.1732 31.3185C56.7889 31.4787 56.4927 31.7108 56.2845 32.015C56.0764 32.3032 55.9723 32.6395 55.9723 33.0238C55.9723 33.44 56.1084 33.8083 56.3806 34.1285C56.6528 34.4328 57.0611 34.6729 57.6055 34.849L61.0399 35.9538C62.4809 36.4182 63.5537 37.0666 64.2582 37.8992C64.9787 38.7318 65.339 39.7485 65.339 40.9494C65.339 41.9901 65.0668 42.9188 64.5224 43.7353C63.978 44.5359 63.2255 45.1684 62.2648 45.6327C61.3201 46.081 60.2153 46.3052 58.9504 46.3052ZM74.0442 46.3052C72.6512 46.3052 71.4424 46.001 70.4176 45.3925C69.3929 44.7681 68.6003 43.9355 68.0399 42.8948C67.4795 41.854 67.1993 40.7012 67.1993 39.4363C67.1993 38.1234 67.4875 36.9545 68.064 35.9298C68.6564 34.9051 69.4489 34.0965 70.4416 33.5041C71.4343 32.9117 72.5551 32.6155 73.804 32.6155C74.8448 32.6155 75.7654 32.7836 76.566 33.1198C77.3666 33.44 78.039 33.8964 78.5834 34.4888C79.1438 35.0812 79.5681 35.7697 79.8563 36.5543C80.1445 37.3228 80.2886 38.1634 80.2886 39.076C80.2886 39.3322 80.2726 39.5884 80.2406 39.8446C80.2246 40.0848 80.1846 40.2929 80.1205 40.469H70.2975V37.8272H78.0791L76.3739 39.076C76.534 38.3876 76.526 37.7791 76.3498 37.2507C76.1737 36.7064 75.8615 36.2821 75.4132 35.9778C74.9809 35.6576 74.4445 35.4975 73.804 35.4975C73.1796 35.4975 72.6432 35.6496 72.1949 35.9538C71.7466 36.258 71.4103 36.7064 71.1862 37.2988C70.962 37.8912 70.874 38.6117 70.922 39.4603C70.8579 40.1968 70.946 40.8453 71.1862 41.4057C71.4263 41.9661 71.7946 42.4064 72.291 42.7266C72.7873 43.0308 73.3877 43.183 74.0922 43.183C74.7327 43.183 75.2771 43.0549 75.7254 42.7987C76.1897 42.5425 76.55 42.1903 76.8062 41.7419L79.6882 43.1109C79.432 43.7514 79.0237 44.3118 78.4633 44.7921C77.9189 45.2724 77.2705 45.6487 76.518 45.9209C75.7654 46.1771 74.9408 46.3052 74.0442 46.3052ZM88.7265 46.3052C87.3335 46.3052 86.1246 46.001 85.0999 45.3925C84.0752 44.7681 83.2826 43.9355 82.7222 42.8948C82.1618 41.854 81.8816 40.7012 81.8816 39.4363C81.8816 38.1234 82.1698 36.9545 82.7462 35.9298C83.3387 34.9051 84.1312 34.0965 85.1239 33.5041C86.1166 32.9117 87.2374 32.6155 88.4863 32.6155C89.5271 32.6155 90.4477 32.7836 91.2483 33.1198C92.0488 33.44 92.7213 33.8964 93.2657 34.4888C93.8261 35.0812 94.2504 35.7697 94.5386 36.5543C94.8268 37.3228 94.9709 38.1634 94.9709 39.076C94.9709 39.3322 94.9549 39.5884 94.9229 39.8446C94.9069 40.0848 94.8668 40.2929 94.8028 40.469H84.9798V37.8272H92.7614L91.0561 39.076C91.2163 38.3876 91.2083 37.7791 91.0321 37.2507C90.856 36.7064 90.5438 36.2821 90.0955 35.9778C89.6632 35.6576 89.1268 35.4975 88.4863 35.4975C87.8619 35.4975 87.3255 35.6496 86.8772 35.9538C86.4289 36.258 86.0926 36.7064 85.8685 37.2988C85.6443 37.8912 85.5562 38.6117 85.6043 39.4603C85.5402 40.1968 85.6283 40.8453 85.8685 41.4057C86.1086 41.9661 86.4769 42.4064 86.9732 42.7266C87.4696 43.0308 88.07 43.183 88.7745 43.183C89.415 43.183 89.9594 43.0549 90.4077 42.7987C90.872 42.5425 91.2323 42.1903 91.4885 41.7419L94.3705 43.1109C94.1143 43.7514 93.706 44.3118 93.1456 44.7921C92.6012 45.2724 91.9528 45.6487 91.2002 45.9209C90.4477 46.1771 89.6231 46.3052 88.7265 46.3052ZM97.0923 46.017V27.8361H100.695V39.4843L99.3499 39.052L105.138 32.9037H109.581L104.826 38.1874L109.557 46.017H105.474L101.511 39.3642L103.601 38.8359L99.5901 43.207L100.695 41.1175V46.017H97.0923ZM117.247 46.3052C115.854 46.3052 114.645 46.001 113.62 45.3925C112.595 44.7681 111.803 43.9355 111.242 42.8948C110.682 41.854 110.402 40.7012 110.402 39.4363C110.402 38.1234 110.69 36.9545 111.266 35.9298C111.859 34.9051 112.651 34.0965 113.644 33.5041C114.637 32.9117 115.758 32.6155 117.007 32.6155C118.047 32.6155 118.968 32.7836 119.769 33.1198C120.569 33.44 121.242 33.8964 121.786 34.4888C122.346 35.0812 122.771 35.7697 123.059 36.5543C123.347 37.3228 123.491 38.1634 123.491 39.076C123.491 39.3322 123.475 39.5884 123.443 39.8446C123.427 40.0848 123.387 40.2929 123.323 40.469H113.5V37.8272H121.282L119.576 39.076C119.736 38.3876 119.728 37.7791 119.552 37.2507C119.376 36.7064 119.064 36.2821 118.616 35.9778C118.183 35.6576 117.647 35.4975 117.007 35.4975C116.382 35.4975 115.846 35.6496 115.397 35.9538C114.949 36.258 114.613 36.7064 114.389 37.2988C114.165 37.8912 114.076 38.6117 114.125 39.4603C114.06 40.1968 114.149 40.8453 114.389 41.4057C114.629 41.9661 114.997 42.4064 115.493 42.7266C115.99 43.0308 116.59 43.183 117.295 43.183C117.935 43.183 118.48 43.0549 118.928 42.7987C119.392 42.5425 119.752 42.1903 120.009 41.7419L122.891 43.1109C122.635 43.7514 122.226 44.3118 121.666 44.7921C121.121 45.2724 120.473 45.6487 119.72 45.9209C118.968 46.1771 118.143 46.3052 117.247 46.3052ZM125.613 46.017V32.9037H128.975V36.0499L128.735 35.5936C129.023 34.4888 129.495 33.7443 130.152 33.36C130.824 32.9597 131.617 32.7596 132.529 32.7596H133.298V35.8818H132.169C131.289 35.8818 130.576 36.154 130.032 36.6984C129.487 37.2267 129.215 37.9793 129.215 38.956V46.017H125.613Z" fill="white"/>
<defs>
<linearGradient id="paint0_linear_161_1171" x1="28.2062" y1="6.86182" x2="-8.24798" y2="35.1558" gradientUnits="userSpaceOnUse">
<stop stop-color="#A374F3"/>
<stop offset="1" stop-color="#FF965A"/>
</linearGradient>
</defs>
</svg>
